{"title":"Merlin.S05E01.Arthurs.Bane.Part.One.HDTV.Xvid-MrX","uid":7702531,"size":393632882,"categoryP":"video","categoryS":"tv_shows","magnet":"?xt=urn:btih:87ff7a941eeadb6bc362af904558455e51638736&amp;dn=Merlin.S05E01.Arthurs.Bane.Part.One.HDTV.Xvid-MrX&amp;tr=udp%3A%2F%2Ftracker.openbittorrent.com%3A80&amp;tr=udp%3A%2F%2Fopen.demonii.com%3A1337&amp;tr=udp%3A%2F%2Ftracker.coppersurfer.tk%3A6969&amp;tr=udp%3A%2F%2Fexodus.desync.com%3A6969","seeders":1,"leechers":0,"uploader":"D.N.M","files":3,"time":1349570963,"description":"Merlin.S05E01.Arthurs.Bane.Part.One.HDTV.Xvid-MrX\n &lt;a href=&quot;\nhttp://www.bbc.co.uk/merlin/&quot; rel=&quot;nofollow&quot; target=&quot;_NEW&quot;&gt;\nhttp://www.bbc.co.uk/merlin/&lt;/a&gt;\n\n\n\nGeneral\nComplete name                            : Merlin.S05E01.Arthurs.Bane.Part.One.HDTV.Xvid-MrX.avi\nFormat                                   : AVI\nFormat/Info                              : Audio Video Interleave\nFile size                                : 374 MiB\nDuration                                 : 42mn 38s\nOverall bit rate mode                    : Variable\nOverall bit rate                         : 1 227 Kbps\n\nVideo\nID                                       : 0\nFormat                                   : MPEG-4 Visual\nFormat profile                           : Advanced Simple@L5\nFormat settings, BVOP                    : 1\nFormat settings, QPel                    : No\nFormat settings, GMC                     : No warppoints\nFormat settings, Matrix                  : Default (H.263)\nMuxing mode                              : Packed bitstream\nCodec ID                                 : XVID\nCodec ID/Hint                            : XviD\nDuration                                 : 42mn 38s\nBit rate                                 : 1 052 Kbps\nWidth                                    : 640 pixels\nHeight                                   : 352 pixels\nDisplay aspect ratio                     : 16:9\nFrame rate                               : 25.000 fps\nColor space                              : YUV\nChroma subsampling                       : 4:2:0\nBit depth                                : 8 bits\nScan type                                : Progressive\nCompression mode                         : Lossy\nBits/(Pixel*Frame)                       : 0.187\nStream size                              : 321 MiB (86%)\nWriting library                          : XviD 1.2.1 (UTC 2008-12-04)\n\nAudio\nID                                       : 1\nFormat                                   : MPEG Audio\nFormat version                           : Version 1\nFormat profile                           : Layer 3\nCodec ID                                 : 55\nCodec ID/Hint                            : MP3\nDuration                                 : 42mn 38s\nBit rate mode                            : Variable\nBit rate                                 : 161 Kbps\nMinimum bit rate                         : 128 Kbps\nChannel(s)                               : 2 channels\nSampling rate                            : 48.0 KHz\nCompression mode                         : Lossy\nStream size                              : 49.2 MiB (13%)\nAlignment                                : Aligned on interleaves\nInterleave, duration                     : 24 ms (0.60 video frame)\nInterleave, preload duration             : 214 ms\nTitle                                    : Merlin.S05E01.Arthurs.Bane.Part.One\nWriting library                          : LAME3.99r\nEncoding settings                        : -m s -V 4 -q 0 -lowpass 17.5 --vbr-mt -b 128\n","torrent":{"xt":"urn:btih:87ff7a941eeadb6bc362af904558455e51638736","amp;dn":"Merlin.S05E01.Arthurs.Bane.Part.One.HDTV.Xvid-MrX","amp;tr":["udp%3A%2F%2Ftracker.openbittorrent.com%3A80","udp%3A%2F%2Fopen.demonii.com%3A1337","udp%3A%2F%2Ftracker.coppersurfer.tk%3A6969","udp%3A%2F%2Fexodus.desync.com%3A6969"],"infoHash":"87ff7a941eeadb6bc362af904558455e51638736","infoHashBuffer":{"type":"Buffer","data":[135,255,122,148,30,234,219,107,195,98,175,144,69,88,69,94,81,99,135,54]},"announce":[],"urlList":[]}}